<?xml version="1.0" encoding="UTF-8" standalone="no"?>
<!DOCTYPE svg PUBLIC "-//W3C//DTD SVG 1.1//EN" "http://www.w3.org/Graphics/SVG/1.1/DTD/svg11.dtd">
<svg width="100%" height="100%" viewBox="0 0 4099 4091" version="1.1" xmlns="http://www.w3.org/2000/svg" xmlns:xlink="http://www.w3.org/1999/xlink" xml:space="preserve" xmlns:serif="http://www.serif.com/" style="fill-rule:evenodd;clip-rule:evenodd;stroke-linejoin:round;stroke-miterlimit:2;">
    <g transform="matrix(4.16667,0,0,4.16667,0,-0.000141667)">
        <g transform="matrix(4.16667,0,0,4.16667,-41.6667,-42.5)">
            <rect x="90.8" y="103" width="30" height="22.2" style="fill:rgb(83,83,83);"/>
            <rect x="135.4" y="103" width="30" height="22.2" style="fill:rgb(83,83,83);"/>
            <rect x="180" y="103" width="30" height="22.2" style="fill:rgb(83,83,83);"/>
            <rect x="46.1" y="145.2" width="30" height="22.2" style="fill:rgb(83,83,83);"/>
            <rect x="90.8" y="145.2" width="30" height="22.2" style="fill:rgb(83,83,83);"/>
            <rect x="135.4" y="145.2" width="30" height="22.2" style="fill:rgb(83,83,83);"/>
            <rect x="180" y="145.2" width="30" height="22.2" style="fill:rgb(83,83,83);"/>
            <rect x="46.1" y="187.3" width="30" height="22.2" style="fill:rgb(83,83,83);"/>
            <rect x="90.8" y="187.3" width="30" height="22.2" style="fill:rgb(83,83,83);"/>
            <rect x="135.4" y="187.3" width="30" height="22.2" style="fill:rgb(83,83,83);"/>
            <rect x="180" y="187.3" width="30" height="22.2" style="fill:rgb(83,83,83);"/>
            <path d="M239.3,38.2L239.3,37.9L239.1,37.9C233.1,30.3 223.9,25.4 213.5,25.4L206.9,25.4L206.9,43.7C206.3,51.9 199.5,58.4 191.2,58.4C182.8,58.4 176.1,51.9 175.5,43.7L175.5,25.4L80.7,25.4L80.7,43.7C80.1,51.9 73.3,58.4 65,58.4C56.6,58.4 49.9,51.9 49.3,43.7L49.3,25.4L42.7,25.4C32.3,25.4 23,30.3 17.1,37.9L16.9,37.9L16.9,38.2C12.5,43.7 10,50.5 10,57.9L10,213.2C10,231.1 24.6,245.8 42.6,245.8L213.5,245.8C231.4,245.8 246.1,231.2 246.1,213.2L246.1,57.9C246,50.5 243.5,43.7 239.3,38.2ZM232.7,213.2C232.7,223.8 224.1,232.4 213.5,232.4L42.6,232.4C32,232.4 23.4,223.8 23.4,213.2L23.4,81.6L232.7,81.6L232.7,213.2Z" style="fill:rgb(83,83,83);fill-rule:nonzero;"/>
            <path d="M73.2,18.3C73.1,13.8 69.4,10.2 64.9,10.2C60.4,10.2 56.8,13.8 56.6,18.3L56.6,41.7C56.9,46 60.5,49.4 64.8,49.4C69.1,49.4 72.7,46 73,41.7L73,18.3L73.2,18.3Z" style="fill:rgb(83,83,83);fill-rule:nonzero;"/>
            <path d="M199.7,18.3C199.6,13.8 195.9,10.2 191.4,10.2C186.9,10.2 183.3,13.8 183.1,18.3L183.1,41.7C183.4,46 187,49.4 191.3,49.4C195.7,49.4 199.2,46 199.5,41.7L199.5,18.3L199.7,18.3Z" style="fill:rgb(83,83,83);fill-rule:nonzero;"/>
        </g>
    </g>
</svg>
