<?xml version="1.0" encoding="UTF-8" standalone="no"?>
<!DOCTYPE svg PUBLIC "-//W3C//DTD SVG 1.1//EN" "http://www.w3.org/Graphics/SVG/1.1/DTD/svg11.dtd">
<svg width="100%" height="100%" viewBox="0 0 17421 17421" version="1.1" xmlns="http://www.w3.org/2000/svg" xmlns:xlink="http://www.w3.org/1999/xlink" xml:space="preserve" xmlns:serif="http://www.serif.com/" style="fill-rule:evenodd;clip-rule:evenodd;stroke-linejoin:round;stroke-miterlimit:2;">
    <g transform="matrix(4.16667,0,0,4.16667,0,0)">
        <g transform="matrix(4.16667,0,0,4.16667,-2076.4,-2076.39)">
            <g transform="matrix(1,0,0,1,-7.8465,67.755)">
                <g>
                    <path d="M1509.51,681.411C1509.51,542.973 1397.12,430.579 1258.68,430.579L757.015,430.579C618.577,430.579 506.183,542.973 506.183,681.411L506.183,1183.08C506.183,1321.51 618.577,1433.91 757.015,1433.91L1258.68,1433.91C1397.12,1433.91 1509.51,1321.51 1509.51,1183.08L1509.51,681.411Z" style="fill:url(#_Linear1);"/>
                </g>
            </g>
            <g transform="matrix(17.2635,0,0,16.6462,-5735.42,-24516.2)">
                <g>
                    <path d="M373.729,1533.98C373.729,1533.98 374.899,1534.41 376.806,1536.18C377.888,1537.18 379.184,1538.61 380.633,1540.65C381.64,1542.04 382.379,1543.45 382.953,1544.71C384.08,1547.17 384.449,1549.03 384.449,1549.03C384.604,1549.68 385.139,1550.15 385.781,1550.21C386.422,1550.27 387.029,1549.9 387.293,1549.29C387.293,1549.29 388.598,1546.61 390.609,1542.82C391.238,1541.63 391.937,1540.33 392.67,1538.97C393.652,1537.14 394.685,1535.17 395.83,1533.25C396.944,1531.3 398.503,1528.88 400.075,1526.46C403.396,1521.36 406.802,1516.37 406.802,1516.37C406.951,1516.18 406.924,1515.91 406.742,1515.75C406.561,1515.6 406.293,1515.63 406.145,1515.82C406.145,1515.82 402.09,1520.29 398.231,1525.01C396.369,1527.28 394.583,1529.62 393.264,1531.5C391.453,1534.22 389.758,1536.98 388.436,1539.49C387.401,1541.46 386.556,1543.25 385.922,1544.68C385.72,1544.28 385.494,1543.87 385.242,1543.43C384.481,1542.12 383.491,1540.67 382.223,1539.27C380.45,1537.32 378.915,1535.98 377.65,1535.07C375.309,1533.39 373.94,1533.13 373.94,1533.13C373.713,1533.07 373.482,1533.21 373.423,1533.44C373.365,1533.68 373.502,1533.92 373.729,1533.98Z" style="fill:white;"/>
                </g>
            </g>
        </g>
    </g>
    <defs>
        <linearGradient id="_Linear1" x1="0" y1="0" x2="1" y2="0" gradientUnits="userSpaceOnUse" gradientTransform="matrix(507.773,-566.156,566.156,507.773,651.62,1286.26)"><stop offset="0" style="stop-color:rgb(48,48,48);stop-opacity:1"/><stop offset="0.5" style="stop-color:rgb(46,46,46);stop-opacity:1"/><stop offset="1" style="stop-color:rgb(48,48,48);stop-opacity:1"/></linearGradient>
    </defs>
</svg>
